<svg xmlns="http://www.w3.org/2000/svg" version="1.0" width="2234.923095703125" height="517.1538696289062" preserveAspectRatio="xMidYMid meet"><rect id="backgroundrect" width="100%" height="100%" x="0" y="0" fill="none" stroke="none" style="" class=""/>


<g class="currentLayer" style=""><title>Layer 1</title><g transform="translate(0,522) scale(0.10000000149011612,-0.10000000149011612) " fill="#2e74b6" stroke="none" id="svg_1" class="" fill-opacity="1">
<path d="M8270 3160 l0 -1990 7030 0 7030 0 0 1990 0 1990 -7030 0 -7030 0 0 -1990z m1780 345 l0 -1475 670 0 670 0 0 -340 0 -340 -1095 0 -1095 0 0 1815 0 1815 425 0 425 0 0 -1475z m5705 470 c293 -22 567 -185 718 -427 57 -90 90 -171 125 -298 l27 -95 3 -903 3 -903 -244 3 -244 3 -41 28 c-49 32 -82 90 -135 240 -6 16 -16 11 -74 -36 -160 -127 -316 -211 -469 -249 -78 -20 -113 -23 -279 -22 -163 0 -202 4 -270 22 -326 89 -506 325 -506 667 -1 126 14 193 68 305 47 98 182 234 295 299 274 154 652 241 1044 241 l94 0 0 108 c0 178 -33 278 -115 350 -68 60 -127 77 -260 76 -138 -1 -188 -15 -376 -105 -191 -92 -284 -106 -379 -58 -55 27 -94 75 -179 218 l-79 133 46 41 c179 155 450 282 722 337 101 21 321 40 390 34 19 -2 71 -6 115 -9z m3033 -20 c28 -10 63 -28 78 -40 l27 -21 -52 -293 c-28 -161 -58 -305 -66 -321 -22 -43 -78 -56 -175 -41 -168 25 -317 8 -410 -46 -65 -38 -144 -117 -196 -194 l-44 -67 0 -791 0 -791 -390 0 -390 0 2 1293 3 1292 270 0 c400 0 381 16 452 -374 l8 -44 39 59 c54 81 238 262 312 307 165 99 376 128 532 72z m-5750 10 c263 -18 516 -132 693 -312 213 -217 319 -503 319 -864 0 -165 -15 -227 -63 -261 l-32 -23 -783 -3 -782 -2 6 -43 c28 -182 93 -326 188 -415 101 -94 205 -136 366 -148 161 -12 272 17 499 129 139 69 147 72 217 72 58 0 78 -4 101 -21 15 -11 83 -88 150 -170 l122 -149 -67 -68 c-256 -261 -639 -391 -1106 -374 -283 10 -491 73 -704 214 -266 176 -459 484 -522 836 -62 341 -22 673 111 939 164 329 478 569 841 644 89 18 257 32 323 28 22 -2 78 -6 123 -9z m7834 -6 c95 -13 227 -63 311 -118 210 -138 337 -359 381 -662 14 -90 16 -241 16 -968 l0 -861 -390 0 -390 0 0 853 c-1 885 -2 913 -43 1009 -24 56 -91 123 -150 149 -72 32 -223 32 -315 0 -71 -24 -185 -90 -243 -139 l-39 -34 0 -919 0 -919 -390 0 -390 0 0 1296 0 1296 273 -4 272 -3 47 -27 c51 -31 75 -71 104 -175 10 -35 22 -63 27 -63 5 0 32 21 61 46 228 206 526 290 858 243z" id="svg_2" fill="#2e74b6" fill-opacity="1"/>
<path d="M15600 2379 c-194 -23 -387 -97 -440 -170 -42 -58 -53 -102 -48 -180 12 -156 124 -219 353 -198 135 12 247 64 356 166 l49 46 0 173 0 174 -97 -1 c-54 -1 -132 -5 -173 -10z" id="svg_3" fill="#2e74b6" fill-opacity="1"/>
<path d="M12826 3428 c-204 -20 -342 -150 -406 -380 -11 -40 -20 -78 -20 -85 0 -10 98 -13 475 -13 l475 0 0 39 c0 64 -28 180 -56 231 -87 160 -247 231 -468 208z" id="svg_4" fill="#2e74b6" fill-opacity="1"/>
<path d="M1688 4995 c-251 -35 -440 -92 -655 -200 -597 -299 -943 -895 -943 -1625 0 -312 58 -572 186 -840 170 -355 421 -616 765 -798 325 -172 657 -236 1089 -212 468 27 795 121 1102 319 l88 56 0 768 0 767 -640 0 -640 0 0 -247 c0 -287 4 -302 80 -340 42 -22 57 -23 247 -23 l203 0 0 -278 0 -277 -77 -27 c-150 -52 -208 -64 -370 -78 -127 -11 -288 1 -408 31 -101 25 -260 102 -345 167 -194 147 -335 386 -394 668 -41 192 -41 465 -1 659 87 417 347 711 715 805 224 57 543 41 774 -39 33 -12 111 -49 175 -83 195 -104 209 -110 256 -116 55 -6 117 16 161 56 17 16 90 117 163 225 l131 196 -68 57 c-254 216 -595 359 -975 409 -145 19 -481 19 -619 0z" id="svg_5" fill="#2e74b6" fill-opacity="1"/>
<path d="M5263 5000 c-414 -52 -806 -236 -1078 -506 -312 -309 -489 -707 -527 -1185 -39 -498 117 -998 425 -1365 247 -295 623 -510 1031 -589 321 -63 725 -47 1016 40 470 141 838 436 1063 855 308 571 293 1334 -37 1894 -223 379 -596 665 -1032 789 -199 57 -292 69 -549 73 -132 1 -272 -1 -312 -6z m376 -680 c275 -25 474 -116 638 -295 174 -189 266 -447 280 -791 23 -554 -193 -981 -578 -1145 -301 -128 -734 -105 -995 52 -188 114 -320 287 -398 520 -61 183 -70 246 -70 504 -1 186 3 246 18 315 29 136 64 238 119 344 150 293 412 464 760 495 51 5 97 9 102 10 6 0 61 -4 124 -9z" id="svg_6" fill="#2e74b6" fill-opacity="1"/>
<path d="M17750 879 c-102 -20 -174 -107 -173 -209 1 -101 43 -149 172 -199 44 -17 85 -31 91 -31 19 0 84 -37 103 -58 40 -45 35 -154 -9 -203 -70 -79 -228 -77 -325 6 -52 43 -89 2 -42 -48 108 -113 326 -107 426 12 32 39 47 89 47 161 0 100 -49 149 -206 205 -159 58 -190 86 -188 170 3 120 154 177 281 105 63 -36 69 -36 83 -9 15 27 2 42 -64 73 -60 29 -133 38 -196 25z" id="svg_7" fill="#2e74b6" fill-opacity="1"/>
<path d="M18450 880 c-70 -15 -164 -66 -205 -111 -20 -23 -51 -71 -69 -108 -30 -63 -31 -71 -31 -191 0 -107 4 -133 23 -182 30 -75 108 -160 177 -193 137 -68 348 -41 440 55 27 29 28 31 12 48 -17 16 -19 16 -45 0 -110 -69 -123 -73 -222 -73 -84 0 -101 3 -146 27 -62 33 -109 84 -143 158 -22 48 -26 68 -26 160 0 99 2 109 33 172 18 36 50 82 71 101 102 92 300 103 406 23 35 -27 59 -26 70 2 9 23 -45 67 -113 92 -63 24 -169 33 -232 20z" id="svg_8" fill="#2e74b6" fill-opacity="1"/>
<path d="M20050 880 c-69 -15 -148 -60 -195 -112 -81 -90 -110 -187 -103 -334 9 -158 80 -274 206 -336 64 -31 72 -33 182 -33 106 0 120 2 172 28 72 36 149 119 180 195 19 49 23 75 23 182 0 108 -4 133 -24 185 -33 83 -125 175 -204 204 -67 25 -173 34 -237 21z m193 -74 c152 -55 234 -230 197 -418 -22 -115 -76 -191 -170 -240 -65 -33 -193 -33 -267 1 -94 42 -154 129 -174 250 -15 87 -1 189 36 261 31 61 105 126 164 144 59 19 165 19 214 2z" id="svg_9" fill="#2e74b6" fill-opacity="1"/>
<path d="M20930 880 c-115 -25 -208 -101 -263 -218 -31 -64 -32 -72 -32 -192 0 -119 1 -128 31 -191 43 -89 93 -142 172 -181 64 -31 72 -33 182 -33 106 0 120 2 172 28 73 36 150 119 179 195 27 71 37 220 19 301 -26 121 -117 230 -223 269 -67 25 -173 35 -237 22z m227 -88 c116 -60 182 -197 170 -351 -11 -138 -71 -239 -173 -291 -69 -35 -196 -35 -271 -1 -94 42 -154 129 -174 250 -15 87 -1 189 36 261 31 60 105 126 164 145 67 22 194 15 248 -13z" id="svg_10" fill="#2e74b6" fill-opacity="1"/>
<path d="M18960 470 l0 -410 40 0 40 0 0 190 0 190 240 0 240 0 0 -190 0 -190 35 0 35 0 0 410 0 410 -35 0 -35 0 0 -185 0 -185 -240 0 -240 0 0 185 0 185 -40 0 -40 0 0 -410z" id="svg_11" fill="#2e74b6" fill-opacity="1"/>
<path d="M21560 470 l0 -410 225 0 225 0 0 35 0 35 -190 0 -190 0 0 375 0 375 -35 0 -35 0 0 -410z" id="svg_12" fill="#2e74b6" fill-opacity="1"/>
</g></g></svg>