<svg id="SvgjsSvg1001" width="288" height="288" xmlns="http://www.w3.org/2000/svg" version="1.1" xmlns:xlink="http://www.w3.org/1999/xlink" xmlns:svgjs="http://svgjs.com/svgjs"><defs id="SvgjsDefs1002"></defs><g id="SvgjsG1008" transform="matrix(1,0,0,1,0,0)"><svg xmlns="http://www.w3.org/2000/svg" width="288" height="288" version="1.0" viewBox="0 0 2237 409"><g transform="matrix(.1 0 0 -.1 0 409)" fill="#2e74b6" class="color000 svgShape"><path d="M8260 2050 l0 -1990 7030 0 7030 0 0 1990 0 1990 -7030 0 -7030 0 0-1990z m1780 345 l0 -1475 670 0 670 0 0 -340 0 -340 -1095 0 -1095 0 0 1815
0 1815 425 0 425 0 0 -1475z m5705 470 c381 -26 706 -280 823 -645 51 -156 52
-181 52 -1112 l0 -869 -237 3 c-207 3 -243 5 -275 22 -46 22 -88 84 -123 181
-15 41 -32 75 -37 75 -6 0 -31 -18 -57 -39 -81 -68 -241 -169 -318 -201 -153
-64 -208 -73 -428 -74 -176 0 -210 3 -280 22 -209 58 -349 167 -433 337 -53
107 -66 174 -66 335 0 135 2 150 28 220 91 239 285 395 635 510 203 66 391 97
664 107 l169 6 -4 136 c-6 190 -41 277 -140 343 -63 43 -111 53 -238 52 -138
-1 -205 -21 -390 -114 -129 -65 -207 -84 -290 -71 -98 16 -149 65 -254 250
-79 140 -82 124 35 211 203 151 441 252 694 297 96 16 297 32 355 27 19 -2 71
-6 115 -9z m2956 0 c32 -4 82 -19 120 -38 56 -28 64 -36 61 -57 -22 -155 -105
-588 -117 -606 -23 -36 -85 -49 -175 -35 -92 14 -230 14 -289 0 -116 -26 -227
-111 -311 -235 l-50 -76 0 -789 0 -789 -385 0 -385 0 0 1296 0 1296 268 -4
c279 -4 314 -10 364 -55 25 -22 47 -98 72 -240 l22 -124 34 48 c136 192 333
350 490 394 52 14 163 27 200 23 14 -2 50 -6 81 -9z m-5681 -10 c52 -3 124
-12 160 -20 436 -101 715 -376 826 -811 46 -183 50 -492 7 -567 -41 -70 -1
-67 -861 -67 -732 0 -773 -1 -768 -17 2 -10 8 -38 11 -63 13 -83 64 -226 103
-286 117 -181 353 -273 602 -235 108 17 157 34 327 118 163 80 228 96 295 74
42 -14 77 -50 207 -210 117 -146 118 -129 -17 -246 -177 -153 -397 -253 -662
-301 -47 -9 -168 -18 -270 -21 -159 -5 -202 -2 -310 16 -427 73 -737 298 -915
665 -91 188 -127 326 -145 558 -23 305 35 587 167 814 175 298 468 510 803
579 83 17 270 34 320 29 14 -2 68 -6 120 -9z m7874 -11 c314 -60 551 -296 635
-633 39 -152 41 -212 41 -1102 l0 -869 -390 0 -390 0 0 863 c0 940 1 928 -57
1026 -35 60 -67 89 -133 120 -47 22 -68 25 -150 25 -58 0 -115 -7 -148 -17
-73 -22 -177 -79 -244 -133 l-58 -46 0 -919 0 -919 -390 0 -390 0 2 1293 3
1292 270 0 c260 0 272 -1 312 -22 55 -30 76 -61 108 -166 l27 -88 43 40 c247
228 573 319 909 255z" fill="#2e74b6" class="color000 svgShape"></path><path d="M15625 1273c-22-2-76-11-120-19-293-56-418-160-402-334 13-145 92-201 282-201 55-1 123 5 150 11 81 20 185 75 257 137l68 58 0 178 0 177-97-2c-54-1-116-3-138-5zM12850 2323c-245-19-394-167-455-451l-7-32 478 2 478 3-3 53c-6 122-63 256-135 319-51 44-147 91-200 97-73 9-120 12-156 9zM1670 3884c-788-111-1346-592-1528-1320-45-179-57-286-56-514 0-247 22-394 89-596 94-286 216-491 415-698 256-266 586-444 959-516 291-57 717-43 1066 35 215 47 441 143 623 262l82 54 0 765 0 764-645 0-645 0 0-242c0-220 2-245 20-283 36-74 55-80 298-83l212-3 0-279 0-278-112-36c-134-43-186-53-334-66-173-15-355 7-502 60-393 145-643 528-671 1030-25 456 107 829 371 1050 208 174 451 242 786 220 231-16 377-60 588-180 135-76 189-95 252-86 81 11 115 44 264 267 76 112 138 206 137 209-1 11-148 126-224 176-207 135-442 224-740 279-128 24-560 30-705 9zM5230 3885c-269-38-512-122-726-251-133-79-196-127-308-234-266-254-430-557-513-947-26-121-27-142-27-398 0-256 1-277 27-398 169-791 739-1319 1547-1433 252-36 583-18 835 46 912 230 1461 1097 1320 2088-72 503-351 955-758 1226-252 168-535 271-842 306-123 14-439 11-555-5zm545-695c348-69 595-298 709-659 51-162 61-239 61-486-1-216-3-237-28-348-33-138-65-227-114-317-156-289-414-451-761-479-502-41-871 169-1044 591-69 171-105 410-95 638 18 414 161 726 413 906 221 158 545 216 859 154z" fill="#2e74b6" class="color000 svgShape"></path></g></svg></g></svg>