<svg xmlns="http://www.w3.org/2000/svg" version="1.0" width="2229.684326171875" height="512.6842041015625" preserveAspectRatio="xMidYMid meet"><rect id="backgroundrect" width="100%" height="100%" x="0" y="0" fill="none" stroke="none" style="" class=""/>


<g class="currentLayer" style=""><title>Layer 1</title><g transform="translate(0,522) scale(0.10000000149011612,-0.10000000149011612) " fill="#2e74b6" stroke="none" id="svg_1" class="" fill-opacity="1">
<path d="M8206.84211063385,3202.631576538086 l0,-1990 l7030,0 l7030,0 l0,1990 l0,1990 l-7030,0 l-7030,0 l0,-1990 zm1780,345 l0,-1475 l670,0 l670,0 l0,-340 l0,-340 l-1095,0 l-1095,0 l0,1815 l0,1815 l425,0 l425,0 l0,-1475 zm5705,470 c381,-26 706,-280 823,-645 c51,-156 52,-181 52,-1112 l0,-869 l-237,3 c-207,3 -243,5 -275,22 c-46,22 -88,84 -123,181 c-15,41 -32,75 -37,75 c-6,0 -31,-18 -57,-39 c-81,-68 -241,-169 -318,-201 c-153,-64 -208,-73 -428,-74 c-176,0 -210,3 -280,22 c-209,58 -349,167 -433,337 c-53,107 -66,174 -66,335 c0,135 2,150 28,220 c91,239 285,395 635,510 c203,66 391,97 664,107 l169,6 l-4,136 c-6,190 -41,277 -140,343 c-63,43 -111,53 -238,52 c-138,-1 -205,-21 -390,-114 c-129,-65 -207,-84 -290,-71 c-98,16 -149,65 -254,250 c-79,140 -82,124 35,211 c203,151 441,252 694,297 c96,16 297,32 355,27 c19,-2 71,-6 115,-9 zm2956,0 c32,-4 82,-19 120,-38 c56,-28 64,-36 61,-57 c-22,-155 -105,-588 -117,-606 c-23,-36 -85,-49 -175,-35 c-92,14 -230,14 -289,0 c-116,-26 -227,-111 -311,-235 l-50,-76 l0,-789 l0,-789 l-385,0 l-385,0 l0,1296 l0,1296 l268,-4 c279,-4 314,-10 364,-55 c25,-22 47,-98 72,-240 l22,-124 l34,48 c136,192 333,350 490,394 c52,14 163,27 200,23 c14,-2 50,-6 81,-9 zm-5681,-10 c52,-3 124,-12 160,-20 c436,-101 715,-376 826,-811 c46,-183 50,-492 7,-567 c-41,-70 -1,-67 -861,-67 c-732,0 -773,-1 -768,-17 c2,-10 8,-38 11,-63 c13,-83 64,-226 103,-286 c117,-181 353,-273 602,-235 c108,17 157,34 327,118 c163,80 228,96 295,74 c42,-14 77,-50 207,-210 c117,-146 118,-129 -17,-246 c-177,-153 -397,-253 -662,-301 c-47,-9 -168,-18 -270,-21 c-159,-5 -202,-2 -310,16 c-427,73 -737,298 -915,665 c-91,188 -127,326 -145,558 c-23,305 35,587 167,814 c175,298 468,510 803,579 c83,17 270,34 320,29 c14,-2 68,-6 120,-9 zm7874,-11 c314,-60 551,-296 635,-633 c39,-152 41,-212 41,-1102 l0,-869 l-390,0 l-390,0 l0,863 c0,940 1,928 -57,1026 c-35,60 -67,89 -133,120 c-47,22 -68,25 -150,25 c-58,0 -115,-7 -148,-17 c-73,-22 -177,-79 -244,-133 l-58,-46 l0,-919 l0,-919 l-390,0 l-390,0 l2,1293 l3,1292 l270,0 c260,0 272,-1 312,-22 c55,-30 76,-61 108,-166 l27,-88 l43,40 c247,228 573,319 909,255 z" id="svg_2" fill="#2e74b6"/>
<path d="M15571.84211063385,2425.631576538086 c-22,-2 -76,-11 -120,-19 c-293,-56 -418,-160 -402,-334 c13,-145 92,-201 282,-201 c55,-1 123,5 150,11 c81,20 185,75 257,137 l68,58 l0,178 l0,177 l-97,-2 c-54,-1 -116,-3 -138,-5 z" id="svg_3" fill="#2e74b6"/>
<path d="M12796.84211063385,3475.631576538086 c-245,-19 -394,-167 -455,-451 l-7,-32 l478,2 l478,3 l-3,53 c-6,122 -63,256 -135,319 c-51,44 -147,91 -200,97 c-73,9 -120,12 -156,9 z" id="svg_4" fill="#2e74b6"/>
<path d="M1616.84211063385,5036.631576538086 c-788,-111 -1346,-592 -1528,-1320 c-45,-179 -57,-286 -56,-514 c0,-247 22,-394 89,-596 c94,-286 216,-491 415,-698 c256,-266 586,-444 959,-516 c291,-57 717,-43 1066,35 c215,47 441,143 623,262 l82,54 l0,765 l0,764 l-645,0 l-645,0 l0,-242 c0,-220 2,-245 20,-283 c36,-74 55,-80 298,-83 l212,-3 l0,-279 l0,-278 l-112,-36 c-134,-43 -186,-53 -334,-66 c-173,-15 -355,7 -502,60 c-393,145 -643,528 -671,1030 c-25,456 107,829 371,1050 c208,174 451,242 786,220 c231,-16 377,-60 588,-180 c135,-76 189,-95 252,-86 c81,11 115,44 264,267 c76,112 138,206 137,209 c-1,11 -148,126 -224,176 c-207,135 -442,224 -740,279 c-128,24 -560,30 -705,9 z" id="svg_5" fill="#2e74b6"/>
<path d="M5176.84211063385,5037.631576538086 c-269,-38 -512,-122 -726,-251 c-133,-79 -196,-127 -308,-234 c-266,-254 -430,-557 -513,-947 c-26,-121 -27,-142 -27,-398 c0,-256 1,-277 27,-398 c169,-791 739,-1319 1547,-1433 c252,-36 583,-18 835,46 c912,230 1461,1097 1320,2088 c-72,503 -351,955 -758,1226 c-252,168 -535,271 -842,306 c-123,14 -439,11 -555,-5 zm545,-695 c348,-69 595,-298 709,-659 c51,-162 61,-239 61,-486 c-1,-216 -3,-237 -28,-348 c-33,-138 -65,-227 -114,-317 c-156,-289 -414,-451 -761,-479 c-502,-41 -871,169 -1044,591 c-69,171 -105,410 -95,638 c18,414 161,726 413,906 c221,158 545,216 859,154 z" id="svg_6" fill="#2e74b6"/>
<path d="M15666.84211063385,517.6315765380859 l0,-465 l30,0 l30,0 l0,465 l0,465 l-30,0 l-30,0 l0,-465 z" id="svg_7" fill="#2e74b6"/>
<path d="M9176.84211063385,512.6315765380859 l0,-410 l35,0 l35,0 l0,160 c0,88 1,160 3,160 c1,1 58,5 127,9 c139,9 184,25 239,83 c47,50 65,106 59,186 c-6,83 -38,140 -100,175 c-61,35 -130,47 -273,47 l-125,0 l0,-410 zm342,319 c123,-68 113,-255 -16,-315 c-43,-20 -67,-24 -153,-24 l-103,0 l0,178 c0,98 3,182 8,186 c4,5 55,6 114,3 c87,-4 114,-9 150,-28 z" id="svg_8" fill="#2e74b6"/>
<path d="M10232.84211063385,903.6315765380859 c-23,-25 -15,-66 15,-82 c49,-26 100,23 75,72 c-16,32 -65,38 -90,10 z" id="svg_9" fill="#2e74b6"/>
<path d="M12656.84211063385,887.6315765380859 l0,-35 l145,0 l145,0 l0,-375 l0,-375 l35,0 l35,0 l0,375 l0,375 l140,0 l140,0 l0,35 l0,35 l-320,0 l-320,0 l0,-35 z" id="svg_10" fill="#2e74b6"/>
<path d="M16186.84211063385,512.6315765380859 l0,-410 l40,0 l40,0 l0,190 l0,190 l240,0 l240,0 l0,-190 l0,-190 l35,0 l35,0 l0,410 l0,410 l-35,0 l-35,0 l0,-185 l0,-185 l-240,0 l-240,0 l0,185 l0,185 l-40,0 l-40,0 l0,-410 z" id="svg_11" fill="#2e74b6"/>
<path d="M19176.84211063385,887.6315765380859 l0,-35 l140,0 l140,0 l0,-375 l0,-375 l40,0 l40,0 l0,375 l0,375 l140,0 l140,0 l0,35 l0,35 l-320,0 l-320,0 l0,-35 z" id="svg_12" fill="#2e74b6"/>
<path d="M11615.84211063385,880.6315765380859 c-1,-2 -7,-50 -13,-108 l-11,-105 l-48,-3 c-43,-3 -48,-5 -45,-25 c2,-18 11,-23 48,-27 l45,-5 l5,-220 c5,-238 9,-254 62,-276 c75,-31 199,10 183,60 c-8,25 -18,26 -48,7 c-37,-24 -87,-24 -111,0 c-14,13 -16,48 -16,225 l0,209 l85,0 c84,0 85,0 85,25 c0,25 -1,25 -85,25 l-85,0 l0,110 l0,110 l-25,0 c-14,0 -26,-1 -26,-2 z" id="svg_13" fill="#2e74b6"/>
<path d="M14028.84211063385,870.6315765380859 c-7,-7 -12,-35 -12,-64 c0,-28 -3,-72 -6,-98 l-7,-46 l-49,0 c-42,0 -49,-3 -44,-16 c3,-9 6,-20 6,-25 c0,-5 20,-9 45,-9 l45,0 l0,-205 c0,-221 6,-257 51,-289 c29,-20 120,-21 158,-2 c43,23 53,39 37,61 c-13,18 -15,17 -58,-4 c-51,-24 -88,-18 -107,18 c-7,12 -11,98 -11,220 l0,201 l90,0 c89,0 90,0 90,25 c0,25 -1,25 -90,25 l-90,0 l0,110 c0,99 -2,110 -18,110 c-10,0 -23,-5 -30,-12 z" id="svg_14" fill="#2e74b6"/>
<path d="M20541.84211063385,870.6315765380859 c-2,-7 -8,-56 -12,-108 l-8,-95 l-48,-3 c-43,-3 -48,-5 -45,-25 c2,-18 11,-23 48,-27 l45,-5 l5,-220 c5,-238 9,-254 62,-276 c43,-18 104,-13 148,12 c41,23 46,33 30,59 c-8,13 -13,13 -39,-3 c-16,-9 -45,-17 -64,-17 c-65,0 -67,7 -67,241 l0,209 l85,0 c84,0 85,0 85,25 c0,25 -1,25 -85,25 l-85,0 l0,110 l0,110 l-25,0 c-14,0 -28,-6 -30,-12 z" id="svg_15" fill="#2e74b6"/>
<path d="M9946.84211063385,670.6315765380859 c-29,-15 -52,-37 -66,-61 l-21,-38 l-9,53 c-8,48 -12,53 -36,56 l-28,3 l0,-290 l0,-291 l35,0 l35,0 l0,191 c0,188 0,192 27,240 c39,73 78,93 164,86 c54,-5 69,-3 69,8 c0,7 3,20 6,28 c3,10 -5,18 -27,26 c-49,17 -100,13 -149,-11 z" id="svg_16" fill="#2e74b6"/>
<path d="M11155.84211063385,683.6315765380859 c-38,-12 -70,-31 -106,-62 c-28,-24 -30,-29 -18,-46 c13,-17 15,-17 42,-1 c161,100 271,67 274,-82 c2,-60 -7,-70 -66,-70 c-108,-1 -242,-55 -270,-110 c-35,-68 -8,-162 56,-195 c69,-36 204,-11 264,49 l25,25 l0,-25 c0,-36 18,-64 40,-64 c19,0 20,8 20,220 c0,240 -5,268 -57,323 c-41,42 -133,59 -204,38 zm191,-380 c0,-68 -1,-70 -37,-99 c-96,-74 -216,-68 -243,13 c-13,41 0,77 40,106 c33,25 123,48 188,48 l52,1 l0,-69 z" id="svg_17" fill="#2e74b6"/>
<path d="M12083.84211063385,676.6315765380859 c-107,-34 -167,-134 -167,-278 c0,-89 12,-132 53,-193 c62,-92 184,-127 315,-88 c65,20 117,61 101,81 c-15,18 -34,18 -65,-2 c-44,-29 -131,-44 -187,-32 c-86,18 -147,101 -147,200 c0,29 5,37 23,42 c12,3 104,6 204,6 c130,0 182,3 185,12 c9,27 -12,121 -36,163 c-51,86 -170,124 -279,89 zm198,-84 c31,-30 55,-81 55,-117 c0,-10 -42,-13 -175,-13 c-114,0 -175,4 -175,10 c0,21 31,85 53,109 c35,38 76,52 144,48 c56,-3 67,-7 98,-37 z" id="svg_18" fill="#2e74b6"/>
<path d="M14516.84211063385,683.6315765380859 c-73,-23 -137,-79 -165,-146 c-25,-60 -31,-180 -12,-246 c36,-124 122,-189 247,-188 c74,0 125,15 168,50 c124,99 128,372 6,478 c-56,49 -171,74 -244,52 zm185,-85 c55,-42 76,-98 76,-202 c0,-161 -62,-238 -192,-237 c-94,1 -146,42 -174,136 c-31,105 -11,228 47,284 c45,44 73,53 144,50 c50,-2 69,-8 99,-31 z" id="svg_19" fill="#2e74b6"/>
<path d="M15126.84211063385,670.6315765380859 c-27,-14 -55,-39 -70,-62 l-25,-39 l-5,54 c-5,50 -7,54 -32,57 l-28,3 l0,-290 l0,-291 l35,0 l35,0 l0,198 l0,198 l29,46 c40,63 77,81 159,76 c64,-3 66,-2 73,24 c6,24 3,28 -24,37 c-47,17 -99,13 -147,-11 z" id="svg_20" fill="#2e74b6"/>
<path d="M17136.84211063385,680.6315765380859 c-57,-15 -111,-59 -143,-116 c-39,-69 -49,-196 -23,-286 c21,-72 89,-145 152,-164 c53,-15 135,-15 188,0 c60,18 131,92 150,159 c21,69 20,183 -1,249 c-41,128 -182,197 -323,158 zm189,-78 c49,-34 74,-93 79,-186 c9,-167 -56,-256 -188,-256 c-132,0 -199,95 -188,266 c9,142 80,212 205,203 c42,-3 71,-12 92,-27 z" id="svg_21" fill="#2e74b6"/>
<path d="M17760.84211063385,681.6315765380859 c-17,-5 -47,-25 -67,-44 c-36,-35 -37,-36 -37,-11 c0,42 -10,56 -41,56 l-29,0 l0,-290 l0,-290 l41,0 l42,0 l-7,218 l-7,217 l38,36 c47,46 73,59 113,59 c49,0 86,-25 104,-70 c13,-33 16,-80 16,-250 l0,-210 l34,0 l35,0 l3,218 c3,241 6,252 71,293 c40,25 117,21 148,-7 c44,-38 49,-71 49,-294 l0,-210 l36,0 l35,0 l-3,228 l-3,227 l-28,48 c-70,118 -243,115 -317,-7 l-18,-28 l-7,23 c-23,75 -112,114 -201,88 z" id="svg_22" fill="#2e74b6"/>
<path d="M18616.84211063385,683.6315765380859 c-89,-27 -150,-92 -176,-187 c-33,-124 0,-261 82,-333 c55,-48 114,-65 202,-59 c94,7 189,58 176,93 c-8,21 -27,19 -85,-11 c-61,-31 -157,-36 -206,-10 c-45,22 -80,70 -98,128 c-21,72 -20,94 8,102 c12,3 107,6 211,6 l189,0 l-6,58 c-12,136 -105,224 -232,221 c-22,0 -51,-4 -65,-8 zm158,-71 c41,-25 72,-76 72,-117 l0,-33 l-174,0 l-175,0 l9,30 c15,52 50,100 88,120 c50,26 136,26 180,0 z" id="svg_23" fill="#2e74b6"/>
<path d="M21013.84211063385,676.6315765380859 c-105,-32 -168,-136 -169,-278 c-1,-114 24,-178 91,-239 c46,-42 93,-57 176,-57 c103,1 176,44 223,135 c24,45 26,61 27,155 c0,94 -3,111 -27,161 c-57,115 -185,165 -321,123 zm183,-66 c59,-30 91,-92 98,-187 c8,-119 -28,-210 -100,-247 c-40,-21 -136,-21 -175,0 c-72,37 -103,104 -103,222 c0,80 12,125 46,170 c48,65 151,84 234,42 z" id="svg_24" fill="#2e74b6"/>
<path d="M21656.84211063385,681.6315765380859 c-35,-14 -80,-58 -96,-94 l-13,-30 l-1,47 c0,65 -7,78 -41,78 l-29,0 l0,-290 l0,-290 l35,0 l35,0 l0,188 c0,208 8,239 69,297 c30,28 37,30 109,30 c77,-1 92,5 92,37 c0,32 -103,49 -160,27 z" id="svg_25" fill="#2e74b6"/>
<path d="M10236.84211063385,392.63157653808594 l0,-290 l35,0 l35,0 l0,290 l0,290 l-35,0 l-35,0 l0,-290 z" id="svg_26" fill="#2e74b6"/>
<path d="M10416.84211063385,675.6315765380859 c0,-4 53,-135 117,-291 l117,-283 l29,3 c28,3 33,13 147,288 l119,285 l-26,3 c-14,2 -30,-1 -37,-8 c-6,-6 -51,-110 -101,-231 c-50,-122 -94,-222 -99,-222 c-5,-1 -53,102 -106,228 c-95,229 -96,230 -128,233 c-17,2 -32,0 -32,-5 z" id="svg_27" fill="#2e74b6"/>
<path d="M13366.84211063385,467.63157653808594 c0,-172 3,-223 15,-253 c33,-77 87,-113 173,-113 c72,-1 133,23 172,67 l30,35 l0,-39 c0,-43 14,-62 47,-62 l23,0 l0,290 l0,290 l-38,0 l-37,0 l3,-213 l4,-213 l-46,-41 c-61,-54 -121,-71 -183,-52 c-84,26 -88,37 -91,295 l-3,224 l-35,0 l-34,0 l0,-215 z" id="svg_28" fill="#2e74b6"/>
<path d="M19878.84211063385,460.63157653808594 c3,-207 5,-226 26,-265 c27,-52 67,-81 126,-92 c82,-15 170,14 218,73 c19,23 25,16 30,-39 c2,-24 8,-31 31,-33 l27,-3 l0,290 l0,291 l-35,0 l-35,0 l0,-214 l0,-214 l-31,-32 c-91,-90 -221,-88 -269,6 c-12,22 -16,77 -18,242 l-3,212 l-36,0 l-35,0 l4,-222 z" id="svg_29" fill="#2e74b6"/>
</g></g></svg>