<?xml version="1.0" standalone="no"?>
<!DOCTYPE svg PUBLIC "-//W3C//DTD SVG 20010904//EN"
 "http://www.w3.org/TR/2001/REC-SVG-20010904/DTD/svg10.dtd">
<svg version="1.0" xmlns="http://www.w3.org/2000/svg"
 width="1082.000000pt" height="278.000000pt" viewBox="0 0 1082.000000 278.000000"
 preserveAspectRatio="xMidYMid meet">

<g transform="translate(0.000000,278.000000) scale(0.100000,-0.100000)"
fill="#000000" stroke="none">
<path d="M4020 1725 l0 -955 3350 0 3350 0 0 955 0 955 -3350 0 -3350 0 0
-955z m850 175 l0 -720 335 0 335 0 0 -150 0 -150 -520 0 -520 0 0 870 0 870
185 0 185 0 0 -720z m1505 225 c263 -55 425 -276 413 -562 -5 -127 30 -117
-423 -121 l-385 -3 0 -25 c0 -44 29 -130 59 -174 33 -50 97 -96 155 -111 23
-6 77 -9 121 -7 70 4 93 10 181 51 143 67 152 65 235 -39 l53 -67 -54 -49
c-62 -56 -166 -110 -255 -133 -98 -26 -268 -31 -361 -11 -221 48 -375 191
-444 411 -31 99 -39 285 -16 389 73 327 384 522 721 451z m1305 -13 c112 -44
203 -138 252 -261 23 -55 23 -65 26 -513 l3 -458 -104 0 c-124 0 -146 12 -172
90 l-17 50 -41 -34 c-107 -86 -218 -126 -353 -126 -216 0 -353 111 -370 301
-10 103 14 168 90 245 114 114 242 156 580 190 l58 6 -4 76 c-4 99 -28 147
-89 180 -38 20 -54 23 -116 19 -60 -3 -88 -12 -169 -50 -148 -72 -190 -64
-259 55 -42 71 -43 68 56 134 141 94 255 125 444 121 105 -3 140 -7 185 -25z
m1267 13 l36 -15 -7 -103 c-9 -121 -20 -177 -38 -188 -7 -5 -52 -6 -99 -3
-138 10 -202 -20 -257 -124 l-32 -60 0 -376 0 -376 -170 0 -170 0 0 620 0 620
125 0 c119 0 127 -1 149 -23 14 -14 26 -42 30 -68 4 -24 9 -57 12 -72 l6 -28
30 45 c41 63 120 131 171 149 56 20 168 21 214 2z m1010 -13 c113 -43 188
-123 236 -249 21 -56 22 -71 25 -520 l3 -463 -168 0 -168 0 0 428 0 428 -25
49 c-59 115 -219 126 -354 24 l-45 -34 -1 -447 0 -448 -170 0 -170 0 0 620 0
620 118 0 c141 0 155 -7 177 -85 l16 -54 57 46 c101 82 200 115 332 109 53 -2
104 -11 137 -24z"/>
<path d="M6170 1891 c-94 -29 -158 -103 -184 -213 l-6 -28 255 0 256 0 -6 38
c-16 95 -57 154 -129 188 -52 24 -133 31 -186 15z"/>
<path d="M7453 1375 c-101 -18 -159 -43 -193 -82 -30 -33 -34 -49 -30 -108 5
-72 56 -100 169 -93 83 5 136 26 196 79 l35 31 0 94 0 94 -52 -1 c-29 0 -85
-7 -125 -14z"/>
<path d="M849 2629 c-352 -37 -618 -233 -729 -538 -86 -235 -77 -515 25 -728
88 -188 212 -310 408 -404 291 -139 705 -120 973 44 l69 43 3 357 2 357 -295
0 -295 0 0 -108 c0 -145 1 -146 156 -150 l114 -4 0 -146 0 -147 -43 -17 c-224
-92 -496 -48 -648 103 -64 63 -118 165 -146 269 -24 89 -24 291 0 379 52 191
165 317 339 378 41 14 82 18 183 18 153 0 200 -12 350 -86 132 -65 142 -62
226 62 32 48 59 92 59 97 0 14 -110 92 -182 128 -92 46 -218 81 -339 94 -111
11 -120 11 -230 -1z"/>
<path d="M2563 2629 c-103 -11 -247 -57 -338 -108 -190 -107 -336 -298 -397
-518 -18 -64 -22 -107 -22 -243 -1 -180 6 -225 56 -354 44 -114 90 -188 171
-272 149 -158 333 -244 562 -263 488 -41 874 238 960 694 23 122 16 337 -15
445 -69 242 -224 429 -444 535 -107 51 -179 71 -307 85 -105 11 -111 11 -226
-1z m249 -300 c193 -40 338 -193 383 -404 19 -90 19 -260 0 -350 -19 -91 -73
-200 -131 -264 -99 -110 -283 -167 -462 -143 -278 37 -442 253 -442 582 0 303
143 517 383 576 66 16 200 17 269 3z"/>
<path d="M7410 275 c0 -177 4 -275 10 -275 6 0 10 98 10 275 0 177 -4 275 -10
275 -6 0 -10 -98 -10 -275z"/>
<path d="M3860 295 c0 -143 4 -225 10 -225 6 0 10 36 10 89 l0 88 73 5 c120 8
167 48 167 142 0 86 -61 125 -197 126 l-63 0 0 -225z m206 172 c32 -37 40 -87
20 -129 -24 -49 -62 -68 -140 -68 l-66 0 0 116 0 116 81 -4 c74 -3 83 -6 105
-31z"/>
<path d="M4427 513 c-11 -10 -8 -41 4 -49 6 -3 18 1 27 9 13 13 13 19 2 31
-14 17 -23 20 -33 9z"/>
<path d="M7730 295 c0 -143 4 -225 10 -225 6 0 10 43 10 110 l0 110 145 0 145
0 0 -110 c0 -91 3 -110 15 -110 13 0 15 32 15 225 0 193 -2 225 -15 225 -12 0
-15 -18 -15 -105 l0 -105 -145 0 -145 0 0 105 c0 63 -4 105 -10 105 -6 0 -10
-82 -10 -225z"/>
<path d="M5208 480 c-4 -14 -8 -42 -8 -62 0 -34 -3 -38 -25 -38 -14 0 -25 -4
-25 -10 0 -5 11 -10 25 -10 l25 0 0 -130 c0 -128 0 -130 25 -146 22 -14 32
-15 66 -5 23 7 37 16 33 22 -4 7 -10 7 -17 0 -18 -18 -65 -13 -77 8 -5 11 -10
72 -10 135 l0 116 50 0 c28 0 50 5 50 10 0 6 -22 10 -50 10 l-49 0 -3 63 c-2
46 -5 55 -10 37z"/>
<path d="M5918 494 c-5 -4 -8 -31 -8 -61 0 -52 0 -53 -30 -53 -16 0 -30 -4
-30 -10 0 -5 14 -10 30 -10 l30 0 0 -130 c0 -128 0 -130 25 -146 29 -19 85 -9
93 16 4 12 2 13 -9 2 -17 -15 -61 -16 -77 0 -8 8 -12 53 -12 135 l0 123 50 0
c28 0 50 5 50 10 0 6 -22 10 -50 10 l-49 0 -3 61 c-2 33 -6 57 -10 53z"/>
<path d="M6468 443 c-3 -55 -4 -58 -30 -61 -35 -4 -37 -22 -3 -22 l25 0 0
-114 c0 -134 8 -162 48 -170 31 -7 82 7 82 23 0 5 -13 4 -30 -2 -57 -22 -65
-7 -68 137 l-3 126 51 0 c27 0 50 5 50 10 0 6 -22 10 -50 10 l-50 0 0 60 c0
77 -18 79 -22 3z"/>
<path d="M9557 443 c-7 -58 -10 -63 -32 -63 -14 0 -25 -4 -25 -10 0 -5 11 -10
25 -10 l25 0 0 -121 c0 -66 4 -129 10 -139 14 -26 63 -35 96 -17 16 8 22 17
16 21 -6 3 -13 2 -17 -4 -3 -5 -20 -10 -36 -10 -41 0 -49 27 -49 161 l0 109
50 0 c28 0 50 5 50 10 0 6 -22 10 -50 10 l-49 0 -3 63 -3 62 -8 -62z"/>
<path d="M10118 480 c-4 -14 -8 -42 -8 -62 0 -34 -3 -38 -25 -38 -14 0 -25 -4
-25 -10 0 -5 11 -10 25 -10 l25 0 0 -130 c0 -128 0 -130 25 -146 22 -14 32
-15 66 -5 23 7 37 16 33 22 -4 7 -10 7 -17 0 -18 -18 -65 -13 -77 8 -5 11 -10
72 -10 135 l0 116 50 0 c28 0 50 5 50 10 0 6 -22 10 -50 10 l-49 0 -3 63 c-2
46 -5 55 -10 37z"/>
<path d="M4211 228 c-1 -99 3 -158 9 -158 6 0 10 40 10 100 0 138 23 180 99
180 21 0 31 5 31 15 0 36 -82 8 -110 -37 -19 -32 -20 -32 -21 -8 0 14 -4 34
-9 45 -5 12 -9 -40 -9 -137z"/>
<path d="M4430 225 c0 -97 4 -155 10 -155 6 0 10 58 10 155 0 97 -4 155 -10
155 -6 0 -10 -58 -10 -155z"/>
<path d="M4530 373 c1 -20 126 -297 136 -300 6 -2 35 52 64 119 86 200 82 188
68 188 -7 0 -38 -59 -68 -131 -30 -72 -57 -132 -60 -134 -3 -2 -31 55 -61 127
-30 73 -60 133 -67 136 -7 2 -12 0 -12 -5z"/>
<path d="M4924 369 c-17 -5 -37 -16 -44 -24 -16 -19 -3 -19 30 0 14 8 42 14
63 15 48 0 77 -28 77 -74 0 -34 -1 -35 -47 -41 -71 -9 -114 -27 -135 -56 -27
-36 -17 -84 22 -104 40 -21 59 -19 116 10 27 14 50 25 52 25 1 0 2 -11 2 -25
0 -14 5 -25 11 -25 17 0 7 239 -11 267 -15 23 -59 44 -89 42 -9 0 -30 -5 -47
-10z m126 -183 c0 -37 -5 -48 -31 -70 -21 -18 -42 -26 -67 -26 -45 0 -58 8
-71 41 -19 51 42 98 127 99 l42 0 0 -44z"/>
<path d="M5463 369 c-128 -37 -113 -268 20 -293 36 -7 97 5 127 23 26 17 4 22
-26 6 -38 -19 -104 -19 -132 1 -29 20 -52 66 -52 104 l0 30 115 0 115 0 0 25
c0 42 -29 85 -65 101 -38 16 -56 16 -102 3z m118 -38 c16 -16 29 -39 29 -50 0
-20 -5 -21 -105 -21 -113 0 -117 2 -88 50 34 58 116 68 164 21z"/>
<path d="M6100 256 c0 -109 2 -126 20 -149 38 -48 83 -45 193 11 4 2 7 -8 7
-22 0 -14 5 -26 10 -26 6 0 10 58 10 155 0 131 -2 155 -15 155 -12 0 -15 -20
-15 -119 l0 -119 -31 -26 c-38 -32 -96 -35 -130 -7 -23 18 -24 27 -27 145 -2
69 -8 126 -13 126 -5 0 -9 -55 -9 -124z"/>
<path d="M6714 361 c-69 -31 -96 -136 -57 -218 34 -73 147 -92 213 -36 83 70
53 235 -48 263 -50 13 -60 13 -108 -9z m138 -30 c32 -28 33 -32 33 -106 0 -74
-1 -78 -33 -106 -24 -22 -42 -29 -73 -29 -55 0 -77 14 -100 63 -24 53 -24 91
0 143 23 51 43 63 98 64 33 0 50 -6 75 -29z"/>
<path d="M7010 225 c0 -179 17 -211 22 -42 4 132 -1 197 -13 197 -5 0 -9 -70
-9 -155z"/>
<path d="M7094 370 c-22 -9 -54 -47 -54 -64 0 -5 11 3 25 18 17 19 34 26 60
26 24 0 35 4 35 15 0 17 -32 19 -66 5z"/>
<path d="M8244 361 c-69 -31 -96 -136 -57 -218 34 -73 147 -92 213 -36 83 70
53 235 -48 263 -50 13 -60 13 -108 -9z m138 -30 c32 -28 33 -32 33 -106 0 -74
-1 -78 -33 -106 -24 -22 -42 -29 -73 -29 -55 0 -77 14 -100 63 -24 53 -24 91
0 143 23 51 43 63 98 64 33 0 50 -6 75 -29z"/>
<path d="M8541 228 c-1 -99 3 -158 9 -158 6 0 10 46 10 118 0 117 0 119 28
145 18 17 39 27 58 27 62 0 74 -29 74 -174 0 -96 3 -116 15 -116 13 0 15 20
15 120 0 115 1 122 25 145 34 35 86 34 114 -1 19 -24 21 -40 21 -145 0 -73 4
-119 10 -119 6 0 10 48 10 124 0 108 -2 126 -20 149 -38 48 -113 43 -157 -11
-17 -20 -23 -23 -23 -10 0 9 -12 26 -27 38 -32 25 -72 22 -115 -10 l-27 -19
-9 27 c-8 20 -11 -14 -11 -130z"/>
<path d="M9115 373 c-58 -15 -95 -72 -95 -147 0 -125 97 -184 223 -134 15 6
27 14 27 19 0 12 -11 11 -40 -6 -30 -17 -90 -19 -124 -3 -28 12 -66 80 -66
116 0 21 3 22 121 22 l122 0 -7 32 c-16 79 -82 121 -161 101z m97 -24 c16 -9
48 -64 48 -84 0 -3 -49 -5 -109 -5 l-110 0 11 30 c15 43 53 70 100 70 22 0 48
-5 60 -11z"/>
<path d="M9742 255 c4 -114 6 -126 28 -150 36 -38 81 -42 140 -12 47 24 50 25
50 7 0 -10 5 -22 10 -25 7 -4 10 48 10 149 0 188 -18 215 -22 34 l-3 -122 -34
-23 c-48 -32 -103 -31 -130 3 -19 24 -21 40 -21 145 0 103 -2 119 -16 119 -15
0 -16 -15 -12 -125z"/>
<path d="M10370 367 c-52 -18 -80 -67 -80 -141 0 -95 34 -140 116 -151 54 -7
104 14 131 54 45 66 24 198 -35 230 -33 17 -95 21 -132 8z m119 -23 c47 -34
66 -135 36 -194 -21 -41 -53 -60 -100 -60 -49 0 -83 22 -101 66 -28 66 -10
155 37 188 13 9 42 16 64 16 22 0 51 -7 64 -16z"/>
<path d="M10650 225 c0 -131 2 -155 15 -155 12 0 15 19 15 109 0 103 1 111 26
140 21 25 33 31 66 31 27 0 38 4 35 13 -2 7 -19 11 -38 10 -26 -1 -42 -11 -66
-39 l-33 -37 0 41 c0 23 -4 42 -10 42 -6 0 -10 -58 -10 -155z"/>
</g>
</svg>
